<svg width="319" height="118" viewBox="0 0 319 118" fill="none" xmlns="http://www.w3.org/2000/svg">
<path fill-rule="evenodd" clip-rule="evenodd" d="M154.28 110.417C119.757 125.258 82.1071 115.678 68.4516 89.1387C55.9271 101.38 36.2419 104.305 20.2222 95.056C0.957458 83.9335 -5.71129 59.4175 5.32729 40.2982C16.3659 21.1788 40.9317 14.6961 60.1964 25.8186C65.3261 28.7802 69.5627 32.6914 72.8097 37.1975C80.7321 24.7102 93.2928 13.8323 109.211 6.9896C144.871 -8.34001 183.868 2.38627 196.317 30.9465C208.766 59.5068 189.941 95.0877 154.28 110.417ZM101.271 76.9928L102.74 72.9299C103.362 72.1741 104.076 71.4921 104.871 70.9015C106.921 69.3781 109.4 68.5414 111.953 68.5109C114.507 68.5414 116.986 69.3781 119.036 70.9015C121.086 72.4249 122.602 74.5571 123.367 76.9936H124.08L124.085 77.0073H129.593L120.075 50.7486C119.523 49.2259 118.516 47.9101 117.19 46.9803C115.864 46.0504 114.283 45.5517 112.663 45.552C111.043 45.5523 109.462 46.0521 108.136 46.9833C106.81 47.9145 105.802 49.2318 105.252 50.7559L95.7416 76.9928H96.0521L96.052 76.9936H100.539L100.54 76.9928H101.271ZM111.975 64.0163C109.706 64.0491 107.484 64.5476 105.44 65.464L110.984 50.1334H114.35L120.229 66.3641C117.744 64.8773 114.899 64.0606 111.975 64.0163ZM63.4619 61.5762C63.4619 52.471 70.2003 45.6023 79.1318 45.6023C81.204 45.5508 83.2651 45.9207 85.1902 46.6892C87.1154 47.4578 88.8645 48.6091 90.3316 50.0735C91.7987 51.5378 92.9533 53.2847 93.7253 55.2085C94.4974 57.1322 94.8709 59.1926 94.8232 61.265V63.1902H68.5718C69.2883 68.8429 73.6238 72.7802 79.1607 72.7802C81.9737 72.8564 84.7149 71.8867 86.8544 70.0588C87.7639 69.2775 88.5433 68.3564 89.1632 67.3301V67.2869H94.2297L94.1791 67.4098C93.4614 69.2802 92.3982 70.9989 91.0451 72.4763C89.537 74.1234 87.6931 75.4279 85.638 76.3019C83.5829 77.1759 81.3643 77.599 79.1318 77.5427C70.2003 77.5427 63.4619 70.6813 63.4619 61.5762ZM72.361 52.6215C70.4442 54.1549 69.1368 56.3213 68.6732 58.7318H89.4094C88.5408 52.985 83.4744 50.3648 79.1318 50.3648C76.6783 50.288 74.2778 51.0881 72.361 52.6215ZM147.774 45.9059C145.065 45.8263 142.426 46.7723 140.384 48.5549C139.59 49.2359 138.919 50.0488 138.401 50.9579V46.2098H133.335V76.9921H138.401V60.3452C138.401 54.8228 142.252 50.9361 147.774 50.9361H153.811V45.8697L147.774 45.9059ZM47.0887 45.6025C44.2017 45.5599 41.3845 46.4906 39.0909 48.2444C38.1895 48.9137 37.4109 49.734 36.7893 50.6689V46.2105H31.7229V76.9349H36.7893V60.3459C36.7893 54.3675 40.5602 50.3578 46.1984 50.3578C51.4603 50.3578 54.3554 53.4701 54.3554 59.1228V76.9276H59.4219V58.8332C59.3929 50.669 54.6811 45.6025 47.0887 45.6025Z" fill="#131E23"/>
<path d="M210.145 66.3763V49.9079H212.175V64.5264H219.619V66.3763H210.145Z" fill="#131E23"/>
<path d="M226.942 66.5568C225.95 66.5568 225.093 66.3688 224.371 65.9928C223.649 65.6168 223.085 65.0754 222.679 64.3685C222.288 63.6466 222.092 62.7969 222.092 61.8193V58.5256C222.092 57.533 222.288 56.6833 222.679 55.9764C223.085 55.2696 223.649 54.7281 224.371 54.3521C225.093 53.9762 225.95 53.7882 226.942 53.7882C227.935 53.7882 228.792 53.9762 229.514 54.3521C230.236 54.7281 230.793 55.2696 231.184 55.9764C231.59 56.6833 231.793 57.5255 231.793 58.5031V61.8193C231.793 62.7969 231.59 63.6466 231.184 64.3685C230.793 65.0754 230.236 65.6168 229.514 65.9928C228.792 66.3688 227.935 66.5568 226.942 66.5568ZM226.942 64.752C227.83 64.752 228.522 64.5039 229.018 64.0076C229.514 63.5112 229.762 62.7818 229.762 61.8193V58.5256C229.762 57.5631 229.514 56.8337 229.018 56.3374C228.522 55.8411 227.83 55.5929 226.942 55.5929C226.07 55.5929 225.378 55.8411 224.867 56.3374C224.371 56.8337 224.123 57.5631 224.123 58.5256V61.8193C224.123 62.7818 224.371 63.5112 224.867 64.0076C225.378 64.5039 226.07 64.752 226.942 64.752Z" fill="#131E23"/>
<path d="M239.657 66.6019C238.665 66.6019 237.792 66.4139 237.04 66.0379C236.303 65.6619 235.732 65.1205 235.326 64.4136C234.92 63.6917 234.717 62.842 234.717 61.8644V58.4805C234.717 57.4879 234.92 56.6382 235.326 55.9313C235.732 55.2244 236.303 54.683 237.04 54.307C237.792 53.931 238.665 53.743 239.657 53.743C241.086 53.743 242.236 54.1265 243.109 54.8936C243.981 55.6606 244.44 56.7058 244.485 58.0293H242.454C242.409 57.2322 242.139 56.6231 241.642 56.202C241.161 55.7659 240.499 55.5478 239.657 55.5478C238.77 55.5478 238.063 55.8035 237.537 56.3148C237.01 56.8111 236.747 57.5255 236.747 58.4579V61.8644C236.747 62.7969 237.01 63.5188 237.537 64.0301C238.063 64.5415 238.77 64.7971 239.657 64.7971C240.499 64.7971 241.161 64.5791 241.642 64.1429C242.139 63.7068 242.409 63.0977 242.454 62.3156H244.485C244.44 63.6391 243.981 64.6843 243.109 65.4514C242.236 66.2184 241.086 66.6019 239.657 66.6019Z" fill="#131E23"/>
<path d="M251.108 66.6019C249.8 66.6019 248.77 66.271 248.018 65.6093C247.266 64.9325 246.89 64.0226 246.89 62.8796C246.89 61.7215 247.266 60.8116 248.018 60.1499C248.77 59.4882 249.785 59.1573 251.063 59.1573H254.898V57.9165C254.898 57.1495 254.665 56.563 254.199 56.1569C253.748 55.7358 253.101 55.5252 252.259 55.5252C251.522 55.5252 250.905 55.6831 250.409 55.999C249.913 56.2998 249.627 56.7134 249.552 57.2397H247.522C247.657 56.1719 248.161 55.3222 249.033 54.6905C249.905 54.0589 250.996 53.743 252.304 53.743C253.733 53.743 254.861 54.1115 255.688 54.8484C256.515 55.5854 256.929 56.5855 256.929 57.8488V66.3763H254.944V64.0076H254.605L254.944 63.6692C254.944 64.5715 254.59 65.2859 253.883 65.8123C253.191 66.3387 252.267 66.6019 251.108 66.6019ZM251.605 65.0002C252.567 65.0002 253.357 64.7595 253.974 64.2783C254.59 63.797 254.898 63.1804 254.898 62.4284V60.6688H251.108C250.432 60.6688 249.898 60.8568 249.507 61.2328C249.116 61.6087 248.92 62.1201 248.92 62.7668C248.92 63.4586 249.153 64.0076 249.62 64.4136C250.101 64.8047 250.763 65.0002 251.605 65.0002Z" fill="#131E23"/>
<path d="M266.169 66.3763C265.102 66.3763 264.267 66.0905 263.665 65.519C263.079 64.9475 262.785 64.1429 262.785 63.1052V55.8185H259.289V53.9686H262.785V50.4719H264.816V53.9686H269.779V55.8185H264.816V63.1052C264.816 64.0527 265.267 64.5264 266.169 64.5264H269.553V66.3763H266.169Z" fill="#131E23"/>
<path d="M272.59 66.3763V64.5264H276.989V55.8185H273.154V53.9686H279.019V64.5264H283.193V66.3763H272.59ZM277.779 51.7353C277.282 51.7353 276.891 51.6074 276.605 51.3517C276.32 51.0961 276.177 50.7502 276.177 50.314C276.177 49.8628 276.32 49.5094 276.605 49.2537C276.891 48.983 277.282 48.8477 277.779 48.8477C278.275 48.8477 278.666 48.983 278.952 49.2537C279.237 49.5094 279.38 49.8628 279.38 50.314C279.38 50.7502 279.237 51.0961 278.952 51.3517C278.666 51.6074 278.275 51.7353 277.779 51.7353Z" fill="#131E23"/>
<path d="M290.065 66.5568C289.072 66.5568 288.215 66.3688 287.493 65.9928C286.771 65.6168 286.207 65.0754 285.801 64.3685C285.41 63.6466 285.214 62.7969 285.214 61.8193V58.5256C285.214 57.533 285.41 56.6833 285.801 55.9764C286.207 55.2696 286.771 54.7281 287.493 54.3521C288.215 53.9762 289.072 53.7882 290.065 53.7882C291.057 53.7882 291.914 53.9762 292.636 54.3521C293.358 54.7281 293.915 55.2696 294.306 55.9764C294.712 56.6833 294.915 57.5255 294.915 58.5031V61.8193C294.915 62.7969 294.712 63.6466 294.306 64.3685C293.915 65.0754 293.358 65.6168 292.636 65.9928C291.914 66.3688 291.057 66.5568 290.065 66.5568ZM290.065 64.752C290.952 64.752 291.644 64.5039 292.14 64.0076C292.636 63.5112 292.885 62.7818 292.885 61.8193V58.5256C292.885 57.5631 292.636 56.8337 292.14 56.3374C291.644 55.8411 290.952 55.5929 290.065 55.5929C289.192 55.5929 288.501 55.8411 287.989 56.3374C287.493 56.8337 287.245 57.5631 287.245 58.5256V61.8193C287.245 62.7818 287.493 63.5112 287.989 64.0076C288.501 64.5039 289.192 64.752 290.065 64.752Z" fill="#131E23"/>
<path d="M297.997 66.3763V53.9686H300.027V56.3374H300.456L300.027 56.8111C300.027 55.8335 300.32 55.0816 300.907 54.5552C301.493 54.0138 302.306 53.743 303.343 53.743C304.592 53.743 305.584 54.1265 306.321 54.8936C307.058 55.6606 307.427 56.7058 307.427 58.0293V66.3763H305.396V58.2549C305.396 57.3676 305.156 56.6908 304.674 56.2246C304.208 55.7433 303.569 55.5027 302.757 55.5027C301.915 55.5027 301.245 55.7583 300.749 56.2697C300.268 56.781 300.027 57.518 300.027 58.4805V66.3763H297.997Z" fill="#131E23"/>
<path d="M314.934 57.5736C314.324 57.5736 313.787 57.4533 313.322 57.2126C312.864 56.972 312.507 56.6351 312.251 56.202C311.994 55.7688 311.866 55.2635 311.866 54.686V52.8812C311.866 52.3037 311.994 51.7984 312.251 51.3652C312.507 50.9321 312.864 50.5952 313.322 50.3546C313.787 50.114 314.324 49.9936 314.934 49.9936C315.551 49.9936 316.089 50.114 316.546 50.3546C317.003 50.5952 317.36 50.9321 317.617 51.3652C317.874 51.7984 318.002 52.3037 318.002 52.8812V54.686C318.002 55.2635 317.874 55.7688 317.617 56.202C317.36 56.6351 317.003 56.972 316.546 57.2126C316.089 57.4533 315.551 57.5736 314.934 57.5736ZM315.692 55.8892L314.922 54.0483H315.656L316.462 55.8892H315.692ZM314.934 56.972C315.415 56.972 315.836 56.8798 316.197 56.6953C316.558 56.5028 316.839 56.2341 317.039 55.8892C317.24 55.5442 317.34 55.1432 317.34 54.686V52.8812C317.34 52.424 317.24 52.027 317.039 51.6901C316.839 51.3452 316.558 51.0765 316.197 50.884C315.836 50.6915 315.415 50.5952 314.934 50.5952C314.453 50.5952 314.031 50.6915 313.671 50.884C313.31 51.0765 313.029 51.3452 312.828 51.6901C312.628 52.027 312.528 52.424 312.528 52.8812V54.686C312.528 55.1432 312.628 55.5442 312.828 55.8892C313.029 56.2341 313.31 56.5028 313.671 56.6953C314.031 56.8798 314.453 56.972 314.934 56.972ZM313.61 55.8892V51.6781H314.982C315.415 51.6781 315.756 51.7944 316.005 52.027C316.261 52.2516 316.39 52.5564 316.39 52.9414C316.39 53.3264 316.261 53.6352 316.005 53.8678C315.756 54.0924 315.415 54.2047 314.982 54.2047H314.332V55.8892H313.61ZM314.332 53.6031H314.982C315.191 53.6031 315.355 53.547 315.475 53.4347C315.596 53.3144 315.656 53.1499 315.656 52.9414C315.656 52.7328 315.596 52.5724 315.475 52.4601C315.355 52.3398 315.191 52.2797 314.982 52.2797H314.332V53.6031Z" fill="#131E23"/>
</svg>
